<svg xmlns="http://www.w3.org/2000/svg" width="77" height="43" viewBox="0 0 77 43">
    <g fill="#FFF" fill-rule="evenodd">
        <path d="M5.361 10.535L5 9.905c4.361-1.625 7.382-2.237 12.176-3.407l13.037 5.599 7.518-1.172L52.049.437c1.85.027 3.701.054 5.552.085l3.245 1.276L67.996 0l5.038 3.93.966 6.177-4.594-2.73-6.892-1.96-1.45-1.56c-.194.377-.42.89-.324 1.078.328.646-2.685 4.254-3.19 4.85l-.624 5.32-2.612-5.14c.854-1.796 1.709-3.592 2.567-5.387l1.463-1.781-.98-.457-3.075 1.493-3.15 5.57v.024l-.016.022-.244 1.92c-1.31 2.3-2.62 4.602-3.925 6.904-1.699.983-3.399 1.968-5.093 2.958l-3.002 1.031 1.511 2.22 3.16.984 5.878-1.412c-1.977 1.2-3.955 2.398-5.93 3.599l-2.56.347c-2.092-.779-4.183-1.558-6.275-2.335l-1.833-2.102-2.078 1.287a127.613 127.613 0 0 1-6.602-1.417l-.012.006-.005-.01c-2.791-.677-5.503-1.426-8.737-2.323l-.07.007-.058-.042-.108-.077-.108-.078-.214-.154-.108-.078-.215-.154-.107-.078-.216-.154-.43-.31-.107-.078-.107-.077-1.538-1.106c-1.206-.87-2.414-1.74-3.622-2.607L5.36 10.535h.001zm1.699 1.602l13.837 2.933-1.24-1.92-13.062-1.877.465.864zm.68-1.435l11.42 1.641c-.588-.875-1.07-1.532-1.193-1.532-.475 0-5.856-.159-6.022-.164l-4.205.055zm13.714 5.23L7.512 12.978l.978 1.818 13.061 1.296-.097-.158zm3.534 2.882l-10.88.536.379.272 1.032.743 10.397-.925-.928-.626zm3.716 2.507l-3.689 1.704.123.033 5.448 1.025 1.568-.971-1.807-.968-.358.045-1.285-.868zm-4.775 1.402L28 20.845l-.013-.008-.125-.085-.126-.085-.25-.169-.615-.414-9.432.839 6.491 1.8zM13.162 18.67l10.82-.534-1.63-1.1-.126-.085-.108-.073-13.212-1.31.035.065 4.22 3.037zM63.186 28c.213 0 .399.056.558.168l.112.082a.104.104 0 0 0 .062.025c.023 0 .04-.011.051-.033l.036-.065c.006-.01.015-.017.031-.017.035 0 .053.046.053.137l.002.155v.191l.014.16.016.096c.006.047.01.088.01.125 0 .054-.016.08-.048.08-.018 0-.03-.016-.036-.05a1.015 1.015 0 0 0-.096-.246 1.583 1.583 0 0 0-.154-.264c-.199-.265-.42-.397-.662-.397-.216 0-.391.11-.526.329-.135.218-.202.502-.202.851 0 .457.11.82.33 1.092.166.203.346.304.541.304a.776.776 0 0 0 .367-.103.875.875 0 0 0 .305-.252l.11-.15c.017-.023.032-.034.046-.036.021-.001.032.014.032.047 0 .058-.045.149-.135.276-.236.33-.526.495-.873.495a.992.992 0 0 1-.816-.397c-.209-.265-.314-.61-.314-1.034 0-.232.04-.46.118-.683.078-.223.184-.404.314-.543.216-.228.467-.343.754-.343zm3.8 2.286c0 .264.025.412.076.444.029.018.085.027.168.027.386 0 .66-.14.821-.42.05-.086.082-.129.095-.129.021 0 .031.029.031.087a.83.83 0 0 1-.144.48.387.387 0 0 1-.339.186 11.805 11.805 0 0 1-.368-.026l-.187-.011a2.966 2.966 0 0 0-.64.027c-.047.006-.079.01-.094.01-.034 0-.05-.019-.05-.055 0-.026.015-.043.044-.053a.235.235 0 0 0 .152-.147c.028-.072.042-.191.042-.357v-1.767c0-.226-.076-.354-.228-.383l-.102-.021c-.044-.01-.066-.03-.066-.065 0-.044.017-.065.052-.065a3.309 3.309 0 0 1 .116.015l.074.006c.07.01.121.013.156.013.054 0 .142-.008.26-.026.09-.011.18-.017.274-.017.068 0 .102.02.102.06 0 .035-.024.054-.073.057-.115.01-.172.108-.172.295v1.835zm4.958-2.256a.946.946 0 0 0 .175.02l.182.01.168-.007c.058-.006.108-.011.152-.018.02-.003.04-.005.057-.005.03 0 .046.02.046.056 0 .03-.014.047-.043.052l-.064.015c-.09.019-.133.136-.133.352l.002.184-.004.26c0 .407-.017.735-.049.983-.032.249-.084.44-.156.577-.172.328-.464.491-.877.491-.29 0-.516-.068-.677-.203-.217-.185-.327-.54-.327-1.073l.02-.817-.006-.384a.61.61 0 0 0-.023-.202.211.211 0 0 0-.096-.102.594.594 0 0 0-.188-.068c-.045-.008-.067-.03-.067-.065 0-.036.019-.056.057-.056a.72.72 0 0 1 .07.007c.146.016.257.024.336.024.111 0 .235-.007.37-.022a1.54 1.54 0 0 1 .119-.009c.06 0 .089.022.089.062 0 .023-.005.039-.014.047a.165.165 0 0 1-.065.025c-.07.018-.117.05-.14.097a.778.778 0 0 0-.045.276l-.027.534.003.373c0 .342.015.585.044.73a.774.774 0 0 0 .18.37.678.678 0 0 0 .53.236c.22 0 .398-.08.534-.242.09-.108.156-.267.194-.475a5.37 5.37 0 0 0 .057-.898v-.172l-.009-.433a.505.505 0 0 0-.1-.305.295.295 0 0 0-.24-.109c-.046 0-.068-.021-.068-.064 0-.032.011-.05.033-.052zm3.244.636c0-.285-.093-.44-.28-.467l-.079-.013c-.025-.002-.038-.022-.038-.06 0-.04.017-.061.049-.061l.043.002.128.008c.106.004.174.007.204.007.083 0 .232-.012.45-.036.135-.017.249-.025.34-.025.244 0 .439.065.586.195.146.13.22.3.22.516 0 .246-.092.419-.275.516-.042.023-.064.042-.065.057-.001.026.021.043.067.05a.534.534 0 0 1 .338.232.813.813 0 0 1 .124.459c0 .28-.076.5-.227.663-.151.162-.356.243-.614.243l-.347-.01-.267-.007c-.172 0-.32.01-.445.026a.694.694 0 0 1-.11.009c-.034 0-.05-.019-.05-.055 0-.032.014-.05.045-.058.135-.028.203-.174.203-.436v-1.755zm.392-.185v.607c0 .083.017.141.049.174s.088.05.168.05l.238.006.106-.006c.197-.03.295-.174.295-.433 0-.21-.055-.38-.164-.509a.534.534 0 0 0-.43-.192c-.103 0-.173.02-.208.062-.036.041-.054.122-.054.241zm0 1.408v.35l.006.08.011.179c.014.202.145.303.393.303.244 0 .411-.072.5-.217a.82.82 0 0 0 .11-.433c0-.33-.12-.533-.36-.61a1.569 1.569 0 0 0-.47-.064c-.083 0-.136.024-.157.073-.021.047-.033.161-.033.339zM7.525 33.818c-.148-.435-.221-.6-.308-.6-.074 0-.124.063-.309.588l-2.615 7.278h-.025c-.185-.678-1.468-5.363-1.653-6.181-.123-.551-.234-.997-.234-1.163 0-.167.087-.268.16-.306.149-.077.383-.077.481-.077.062 0 .123-.012.123-.089 0-.05-.049-.09-.221-.09-.617 0-1.16.04-1.271.04-.135 0-.814-.04-1.456-.04-.123 0-.197.026-.197.09 0 .077.05.09.111.09.086 0 .395.012.555.076.321.127.481.318.678.994l2.197 7.564c.246.867.308 1.008.431 1.008.148 0 .21-.14.408-.677.444-1.186 2.134-5.854 2.577-7.078h.025l2.419 7.092c.172.497.246.663.37.663.135 0 .197-.153.518-1.097.48-1.428 1.727-5.484 2.27-7.105.234-.7.432-1.237.802-1.378.135-.05.37-.063.42-.063.073 0 .11-.038.11-.101 0-.052-.062-.078-.173-.078-.382 0-.913.04-.999.04-.11 0-.63-.04-1.258-.04-.148 0-.21.026-.21.09 0 .05.05.09.11.09.568 0 .704.152.704.382 0 .166-.012.344-.136.817-.431 1.632-1.566 5.33-1.9 6.504H9.98l-2.455-7.243zm20.032 3.06c0-1.99 0-2.347.024-2.756.025-.446.124-.663.456-.727a1.75 1.75 0 0 1 .309-.038c.05 0 .099-.026.099-.076 0-.077-.062-.103-.198-.103-.37 0-1.147.04-1.209.04-.062 0-.839-.04-1.394-.04-.135 0-.197.026-.197.103 0 .05.049.076.099.076.11 0 .32.013.419.038.407.09.506.293.53.727.025.409.025.766.025 2.755v.268c0 .064-.037.077-.074.077h-5.23c-.038 0-.075-.013-.075-.077v-.268c0-1.99 0-2.346.025-2.755.025-.446.123-.663.457-.727a1.75 1.75 0 0 1 .308-.038c.049 0 .099-.026.099-.076 0-.077-.062-.103-.198-.103-.37 0-1.147.04-1.209.04-.062 0-.838-.04-1.394-.04-.135 0-.197.026-.197.103 0 .05.049.076.098.076a2.2 2.2 0 0 1 .42.038c.407.09.506.293.53.727.025.409.025.766.025 2.755v2.245c0 1.224 0 2.232-.062 2.768-.05.37-.11.65-.357.701-.112.026-.26.052-.37.052-.074 0-.099.038-.099.076 0 .077.061.102.197.102.37 0 1.147-.038 1.21-.038.06 0 .838.038 1.516.038.136 0 .198-.038.198-.102 0-.038-.025-.076-.099-.076-.11 0-.382-.026-.555-.052-.37-.05-.444-.331-.48-.701-.063-.536-.063-1.544-.063-2.768v-1.34c0-.063.037-.076.074-.076h5.231c.037 0 .074.026.074.077v1.339c0 1.224 0 2.232-.061 2.768-.05.37-.112.65-.359.701-.11.026-.258.052-.37.052-.073 0-.098.038-.098.076 0 .077.062.102.197.102.37 0 1.147-.038 1.21-.038.061 0 .838.038 1.517.038.136 0 .197-.038.197-.102 0-.038-.025-.076-.099-.076a5.15 5.15 0 0 1-.555-.052c-.37-.05-.444-.331-.481-.701-.061-.536-.061-1.544-.061-2.768v-2.245zm7.57 4.54c-.222.638-.469 1.123-1.036 1.2a3.711 3.711 0 0 1-.358.025c-.061 0-.111.025-.111.076 0 .077.074.102.234.102.58 0 1.259-.038 1.395-.038.136 0 .665.038.962.038.11 0 .185-.025.185-.102 0-.051-.037-.076-.123-.076h-.123c-.21 0-.47-.115-.47-.37 0-.23.062-.537.173-.854l.74-2.259c.025-.063.062-.101.123-.101h2.653c.062 0 .086.025.111.076l1.147 3.138c.074.203 0 .318-.074.344-.049.013-.086.038-.086.09 0 .076.136.076.37.09.851.024 1.752.024 1.937.024.136 0 .247-.025.247-.102 0-.064-.05-.076-.123-.076-.124 0-.309-.013-.494-.077-.26-.076-.617-.28-1.06-1.416-.754-1.938-2.69-7.206-2.875-7.691-.148-.395-.198-.459-.272-.459-.074 0-.123.077-.271.497l-2.8 7.922zm1.727-2.819c-.037 0-.062-.026-.037-.089l1.086-3.444c.062-.192.124-.192.185 0l1.172 3.444c.012.051.012.09-.05.09h-2.356zm13.172-1.722c0-1.99 0-2.346.025-2.755.024-.446.123-.663.48-.727a2.77 2.77 0 0 1 .408-.038c.05 0 .1-.026.1-.076 0-.077-.063-.103-.199-.103-.37 0-1.27.04-1.332.04-.062 0-.838-.04-1.394-.04-.135 0-.197.026-.197.103 0 .05.049.076.098.076.111 0 .321.013.42.038.407.09.506.293.53.727.025.409.025.766.025 2.755v2.245c0 1.224 0 2.232-.062 2.768-.05.37-.111.65-.357.701-.112.026-.26.052-.37.052-.075 0-.099.038-.099.076 0 .077.061.102.197.102.185 0 .457-.012.703-.025.247 0 .457-.013.506-.013.358 0 .74.013 1.259.038.517.013 1.16.038 2.047.038.655 0 .69-.05.778-.344a8.45 8.45 0 0 0 .185-1.275c0-.14-.013-.192-.074-.192-.074 0-.1.064-.111.166a1.8 1.8 0 0 1-.321.766c-.297.37-.84.382-1.493.382-.962 0-1.283-.09-1.48-.293-.223-.23-.272-1.047-.272-2.921v-2.27zm10.47 2.245c0 1.224 0 2.232-.061 2.768-.05.37-.111.65-.358.701-.11.026-.259.052-.37.052-.074 0-.099.038-.099.076 0 .077.062.102.197.102.185 0 .47-.025.716-.025.26-.013.469-.013.493-.013.186 0 .482.013.963.038.481.013 1.16.038 2.085.038.481 0 .58 0 .666-.33.061-.269.16-1.136.16-1.239 0-.089 0-.19-.074-.19-.062 0-.086.05-.11.19-.087.524-.235.779-.556.92-.32.14-.863.14-1.184.14-1.21 0-1.394-.167-1.431-1.046-.013-.268 0-1.748 0-2.182V38c0-.052.024-.09.086-.09.21 0 1.43.026 1.764.064.481.051.593.268.642.446.049.167.049.294.049.422 0 .064.025.114.087.114.086 0 .086-.14.086-.242 0-.089.024-.56.049-.816.037-.42.099-.638.099-.715 0-.076-.025-.102-.062-.102-.05 0-.098.064-.185.167-.111.127-.284.153-.58.178-.283.025-1.8.025-1.961.025-.062 0-.074-.038-.074-.127v-3.52c0-.09.024-.128.074-.128.135 0 1.48.012 1.69.038.666.077.79.23.876.434.062.153.074.37.074.458 0 .103.024.167.098.167.05 0 .074-.077.086-.14.025-.154.05-.715.062-.842.037-.357.1-.51.1-.6 0-.064-.013-.114-.05-.114-.062 0-.112.05-.173.063a3.127 3.127 0 0 1-.53.064c-.284.013-2.74.013-2.826.013l-.505-.026c-.271-.013-.605-.013-.889-.013-.135 0-.197.026-.197.103 0 .05.049.076.099.076.111 0 .32.013.42.038.407.09.505.293.53.727.024.409.024.766.024 2.755v2.245zM73.088 43c.667 0 1.332-.153 1.863-.536.852-.625 1.049-1.594 1.049-2.118 0-1.02-.345-1.81-1.802-2.997l-.344-.28c-1.185-.957-1.506-1.416-1.506-2.143 0-.931.666-1.48 1.518-1.48 1.135 0 1.467.536 1.541.676.075.14.149.484.16.638.014.102.026.166.1.166.062 0 .086-.089.086-.294 0-.867.05-1.287.05-1.351 0-.064-.025-.09-.124-.09a1.98 1.98 0 0 1-.432-.064A4.63 4.63 0 0 0 74.1 33c-1.567 0-2.554.931-2.554 2.296 0 .867.297 1.658 1.604 2.768l.556.471c1.06.906 1.418 1.416 1.418 2.296 0 .816-.58 1.697-1.765 1.697-.826 0-1.64-.357-1.826-1.3-.036-.18-.036-.358-.036-.473 0-.102-.013-.14-.087-.14-.06 0-.086.064-.098.203-.012.204-.062.715-.062 1.353 0 .344.012.395.185.484.506.255 1.073.345 1.653.345z"/>
    </g>
</svg>
